<?xml version="1.0"?>
<svg className="man_svg contact_svg" version="1.1" width="52" height="52" x="0" y="0" viewBox="0 0 64 64" style="enableBackground:new 0 0 512 512" xml:space="preserve">
  <g>
    <path xmlns="http://www.w3.org/2000/svg" d="M44,44H38.65v-.05l-.15-2.56A14.051,14.051,0,0,0,46,29V27h1a3.009,3.009,0,0,0,3-3V21a3.01,3.01,0,0,0-2-2.82V18a16,16,0,0,0-32,0v.18A3.01,3.01,0,0,0,14,21v3a3.009,3.009,0,0,0,3,3h1v2a13.936,13.936,0,0,0,4.1,9.9,14.379,14.379,0,0,0,3.4,2.49l-.15,2.56V44H20a9.014,9.014,0,0,0-9,9v8a1,1,0,0,0,1,1H52a1,1,0,0,0,1-1V53A9.014,9.014,0,0,0,44,44Zm4-23v3a1,1,0,0,1-1,1H46V20h1A1,1,0,0,1,48,21ZM18,25H17a1,1,0,0,1-1-1V21a1,1,0,0,1,1-1h1Zm0-7A14.033,14.033,0,0,1,32,4,14.015,14.015,0,0,1,46,18h-.38l-2.24-4.47a3.1,3.1,0,0,0-2.18-1.61,4.028,4.028,0,0,1-2.29-1.38A3.972,3.972,0,0,1,38,8a1,1,0,0,0-2,0,5,5,0,0,1-5,5H24.47A5.038,5.038,0,0,0,20,15.76L18.88,18Zm5.52,19.48A11.915,11.915,0,0,1,20,29V20.24l1.78-3.58A3.044,3.044,0,0,1,24.47,15H31a7,7,0,0,0,6.09-3.55c.09.13.18.25.28.37a6.041,6.041,0,0,0,3.43,2.06,1.09,1.09,0,0,1,.8.55L44,19.24V29A12,12,0,0,1,26.96,39.89,11.861,11.861,0,0,1,23.52,37.48Zm13.13,6.59a4.658,4.658,0,1,1-9.3,0l.11-1.83a13.94,13.94,0,0,0,9.08,0ZM51,60H13V53a7.008,7.008,0,0,1,7-7h5.55a6.662,6.662,0,0,0,12.9,0H44a7.008,7.008,0,0,1,7,7Z" fill="#ffe4c4" data-original="#000000" style="" />
    <path xmlns="http://www.w3.org/2000/svg" d="M28,24V22a1,1,0,0,0-2,0v2a1,1,0,0,0,2,0Z" fill="#ffe4c4" data-original="#000000" style="" />
    <path xmlns="http://www.w3.org/2000/svg" d="M37,25a1,1,0,0,0,1-1V22a1,1,0,0,0-2,0v2A1,1,0,0,0,37,25Z" fill="#ffe4c4" data-original="#000000" style="" />
    <rect xmlns="http://www.w3.org/2000/svg" x="31" y="53" width="2" height="2" rx="1" fill="#ffe4c4" data-original="#000000" style="" />
    <rect xmlns="http://www.w3.org/2000/svg" x="31" y="57" width="2" height="2" rx="1" fill="#ffe4c4" data-original="#000000" style="" />
  </g>
</svg>
