<?xml version="1.0"?>
<svg className="no_gender_svg contact_svg" version="1.1" width="52" height="52" x="0" y="0" viewBox="0 0 425.037 425.037" style="enableBackground:new 0 0 512 512" xml:space="preserve" class="">
  <g>
    <g xmlns="http://www.w3.org/2000/svg">
      <g>
        <path d="M361.22,307.721c-3.098-3.072-6.723-8.673-7.713-12.924c-1.849-7.927-4.145-17.722-6.998-29.854    c-9.242-39.278-39.735-58.112-60.271-66.567c-4.037-1.658-4.809-5.19-1.854-8.404c18.53-20.185,29.909-47.03,29.909-76.535    C314.294,50.884,263.409,0,200.858,0C138.305,0,87.421,50.884,87.421,113.438c0,29.277,11.194,55.946,29.475,76.083    c2.93,3.232,2.133,6.749-1.919,8.366c-20.533,8.216-52.047,27.053-61.456,67.057c-4.202,17.87-7.211,30.722-9.354,39.948    c-1.848,7.947-0.314,15.523,4.299,21.323c4.628,5.829,11.692,9.054,19.893,9.054H79.22c4.362,0,7.718,3.529,7.498,7.892    l-1.856,36.516c-0.404,7.962,2.338,15.457,7.718,21.124c5.377,5.646,12.726,8.76,20.698,8.76h148.45    c4.361,0,10.617,2.29,14.289,4.656c10.618,6.814,23.338,10.821,36.982,10.821c37.842,0,68.635-30.793,68.635-68.634    C381.609,337.381,373.789,320.161,361.22,307.721z M200.85,11.857c56.018,0,101.588,45.575,101.588,101.587    c0,2.242-0.097,4.456-0.27,6.645c-0.284,3.664-4.245,6.436-8.541,5.703c-31.412-5.388-48.825-29.617-56.777-44.801    c-2.995-5.712-6.845-8.792-11.431-9.133c-4.661-0.325-8.967,2.204-12.847,7.513c-25.367,34.713-78.604,44.097-104.484,46.633    c-4.347,0.427-8.287-2.298-8.564-5.948c-0.167-2.189-0.262-4.393-0.262-6.619C99.263,57.432,144.83,11.857,200.85,11.857z     M110.371,137.761c28.114-2.78,83.81-13.114,111.774-51.389c0.411-0.553,0.776-0.996,1.092-1.351    c0.64-0.711,1.803-0.665,2.3,0.087c0.254,0.378,0.528,0.845,0.822,1.406c9.029,17.245,28.844,44.777,64.999,50.985    c4.301,0.744,6.992,4.418,5.596,8.549c-5.276,15.587-14.203,29.513-25.812,40.685c-3.144,3.027-6.032,5.223-6.2,5.19    c-0.168-0.031-0.33,0.086-0.365,0.261c-0.031,0.173-2.793,2.567-6.389,5.04c-16.331,11.225-36.073,17.824-57.338,17.824    c-44.628,0-82.517-28.955-96.113-69.048C103.34,141.861,106.032,138.188,110.371,137.761z M189.196,226.219    c3.832,0.422,7.711,0.66,11.654,0.66c3.324,0,6.604-0.178,9.841-0.497c4.344-0.427,6.447,2.244,4.74,6.256L203.1,261.623    c-1.706,4.017-4.479,4.017-6.185,0l-12.451-29.26C182.765,228.352,184.86,225.736,189.196,226.219z M183.991,280.086H138.14    c-4.37,0-7.823-1.468-9.719-4.107c-1.894-2.651-2.171-6.389-0.771-10.522l15.411-45.549c1.399-4.134,5.609-5.723,9.544-3.839    c2.297,1.097,4.644,2.112,7.023,3.052c4.06,1.604,8.83,5.891,10.539,9.907l18.626,43.782    C190.509,276.831,188.358,280.086,183.991,280.086z M240.232,219.78c2.504-0.924,4.967-1.92,7.384-3.012    c3.981-1.792,8.216-0.152,9.618,3.981l15.127,44.712c1.396,4.144,1.122,7.871-0.777,10.526c-1.894,2.636-5.347,4.108-9.714,4.108    h-45.854c-4.359,0-6.515-3.255-4.801-7.271l18.415-43.29C231.341,225.513,236.14,221.278,240.232,219.78z M101.144,392.645    c-3.123-3.285-4.702-7.683-4.474-12.354l2.491-48.973c0.221-4.361-3.138-7.891-7.498-7.891H68.335    c-4.504,0-8.272-1.62-10.61-4.565c-2.323-2.93-3.05-6.926-2.039-11.283c2.141-9.227,5.151-22.063,9.346-39.918    c9.242-39.304,43.615-55.421,60.664-61.105c4.138-1.384,8.026-1.856,8.586-1.439c0.554,0.419-0.119,4.093-1.516,8.231    l-16.346,48.307c-2.653,7.855-1.818,15.401,2.371,21.221c4.187,5.829,11.052,9.054,19.347,9.054h52.067H209.8h52.069    c8.287,0,15.158-3.225,19.347-9.054c4.185-5.814,5.033-13.355,2.372-21.221l-16.006-47.302c-1.401-4.131-1.869-7.957-1.062-8.563    c0.808-0.617,4.891-0.229,9.014,1.201c17.428,6.038,50.404,22.292,59.433,60.662c1.625,6.932,3.067,13.065,4.352,18.55    c0.995,4.25-1.406,6.185-5.55,4.85c-6.561-2.107-13.543-3.26-20.795-3.26c-37.841,0-68.634,30.777-68.634,68.634    c0,12.694,3.504,24.557,9.552,34.753c2.225,3.753,0.868,6.556-3.493,6.556H113.252    C108.568,397.728,104.265,395.915,101.144,392.645z M259.879,356.418c0-29.289,23.815-53.095,53.095-53.095    c29.275,0,53.096,23.806,53.096,53.095c0,29.27-23.82,53.096-53.096,53.096C283.695,409.514,259.879,385.688,259.879,356.418z" fill="#ffe4c4" data-original="#000000" style="" class="" />
        <path d="M315.005,330.851c2.899,0,5.266,0.848,7.1,2.544c1.833,1.701,2.757,3.783,2.757,6.251c0,1.265-0.3,2.442-0.898,3.515    c-0.6,1.081-1.346,2.071-2.22,2.95c-0.878,0.873-2.311,2.168-4.28,3.899c-2.255,1.976-4.047,3.692-5.372,5.119    c-1.331,1.437-2.397,3.107-3.194,5.001c-0.808,1.895-1.198,4.134-1.198,6.729c0,2.072,0.543,3.631,1.64,4.677    c1.103,1.052,2.448,1.574,4.053,1.574c3.092,0,4.926-1.604,5.509-4.813c0.341-1.508,0.59-2.56,0.768-3.158    c0.162-0.6,0.406-1.199,0.716-1.798c0.31-0.604,0.782-1.265,1.417-1.996c0.629-0.721,1.478-1.569,2.519-2.523    c3.793-3.397,6.424-5.799,7.891-7.236c1.468-1.442,2.732-3.148,3.794-5.118c1.066-1.976,1.594-4.276,1.594-6.901    c0-3.331-0.934-6.413-2.798-9.257c-1.863-2.834-4.509-5.078-7.937-6.733c-3.428-1.65-7.379-2.479-11.852-2.479    c-4.81,0-9.029,0.985-12.64,2.961s-6.357,4.474-8.241,7.484c-1.879,3.012-2.818,5.972-2.818,8.902    c0,1.422,0.594,2.747,1.787,3.966c1.184,1.219,2.646,1.822,4.372,1.822c2.936,0,4.926-1.741,5.977-5.225    c1.112-3.336,2.463-5.85,4.073-7.562C309.11,331.714,311.614,330.851,315.005,330.851z" fill="#ffe4c4" data-original="#000000" style="" class="" />
        <path d="M318.708,389.313c1.392-1.234,2.087-2.936,2.087-5.099c0-1.939-0.665-3.574-1.99-4.905    c-1.325-1.325-2.961-1.99-4.905-1.99c-1.976,0-3.642,0.665-5.002,1.99c-1.361,1.331-2.036,2.966-2.036,4.905    c0,2.188,0.7,3.905,2.107,5.129c1.406,1.224,3.052,1.818,4.931,1.818C315.716,391.167,317.321,390.548,318.708,389.313z" fill="#ffe4c4" data-original="#000000" style="" class="" />
      </g>
    </g>
  </g>
</svg>
